<?xml version="1.0" encoding="utf-8"?>
<!-- Generator: Adobe Illustrator 16.0.0, SVG Export Plug-In . SVG Version: 6.00 Build 0)  -->
<!DOCTYPE svg PUBLIC "-//W3C//DTD SVG 1.1//EN" "http://www.w3.org/Graphics/SVG/1.1/DTD/svg11.dtd">
<svg version="1.1" id="Layer_1" xmlns="http://www.w3.org/2000/svg" xmlns:xlink="http://www.w3.org/1999/xlink" x="0px" y="0px"
	 width="81px" height="185.125px" viewBox="0 0 81 185.125" enable-background="new 0 0 81 185.125" xml:space="preserve">
<path fill="#9ECACF" d="M40.036,123.434l-28.771-12.948V74.724l29.268-12.936l28.772,12.947v35.762L40.036,123.434z M16.265,107.253
	l23.791,10.706l24.249-10.718V77.968l-23.79-10.705l-24.25,10.717V107.253z"/>
<polygon fill="#9ECACF" points="6.462,66.864 0,63.957 2.053,59.397 6.479,61.39 30.729,50.671 30.729,21.398 6.938,10.692 
	3.916,12.028 1.895,7.455 6.958,5.218 35.729,18.165 35.729,53.928 "/>
<polygon fill="#9ECACF" points="6.462,180.32 0,177.413 2.053,172.853 6.479,174.846 30.729,164.127 30.729,134.854 6.938,124.148 
	3.916,125.484 1.895,120.911 6.958,118.674 35.729,131.621 35.729,167.384 "/>
<polygon fill="#9ECACF" points="74.538,66.614 45.271,53.678 45.271,17.915 74.042,4.968 79.105,7.205 77.084,11.778 74.062,10.442 
	50.271,21.148 50.271,50.421 74.521,61.14 78.947,59.147 81,63.707 "/>
<polygon fill="#9ECACF" points="74.538,180.07 45.271,167.134 45.271,131.371 74.042,118.424 79.105,120.661 77.084,125.234 
	74.062,123.898 50.271,134.604 50.271,163.877 74.521,174.596 78.947,172.603 81,177.163 "/>
<path fill="none" stroke="#9ECACF" stroke-width="5" stroke-miterlimit="10" d="M99.948,62.955"/>
</svg>
